<svg version="1.1" viewBox="0 0 960 720" fill="none" stroke="none" stroke-linecap="square" stroke-miterlimit="10" xmlns:xlink="http://www.w3.org/1999/xlink" xmlns="http://www.w3.org/2000/svg"><g><path fill="#000000" fill-opacity="0.0" d="m0 0l960.0 0l0 720.0l-960.0 0z" fill-rule="evenodd"/><path fill="#000000" fill-opacity="0.0" d="m322.51968 302.20734l314.9606 0l0 504.18896l-314.9606 0z" fill-rule="evenodd"/><path fill="#4285f4" d="m480.00006 511.8792l0 -66.671875l-133.32812 0l0 -66.65625l33.328125 0l0 -33.328125l33.328125 0l0 -33.34375l33.34375 0l0 -33.328125l99.984375 0l0 133.32812l33.34375 0l0 33.328125l-33.34375 0l0 66.671875l-66.65625 0zm-66.671875 -100.0l66.671875 0l0 -66.65625l-33.328125 0l0 33.328125l-33.34375 0l0 33.328125z" fill-rule="nonzero"/><path fill="#000000" fill-opacity="0.0" d="m163.19685 188.70079l633.6063 0l0 205.41731l-633.6063 0z" fill-rule="evenodd"/><path fill="#4285f4" d="m218.34358 263.92078l16.359375 -76.999985l76.999985 0l-2.34375 11.0l-54.999985 0l-4.671875 22.0l43.999985 0l-2.328125 11.0l-43.999985 0l-7.015625 32.999985l-22.0 0zm88.000046 0l11.6875 -54.999985l11.0 0l2.328125 -11.0l11.0 0l2.34375 -11.0l33.0 0l-2.34375 11.0l11.0 0l-2.328125 11.0l11.0 0l-11.6875 54.999985l-22.0 0l4.671875 -21.999985l-33.0 0l-4.671875 21.999985l-22.0 0zm29.015625 -32.999985l33.0 0l4.671875 -22.0l-11.0 0l2.328125 -11.0l-11.0 0l-2.328125 11.0l-11.0 0l-4.671875 22.0zm69.984436 32.999985l16.359375 -76.999985l22.0 0l-14.03125 66.0l44.0 0l-2.328125 10.999985l-66.0 0zm88.00006 0l16.359375 -76.999985l22.0 0l-14.03125 66.0l44.0 0l-2.328125 10.999985l-66.0 0zm88.00006 0l2.328125 -10.999985l22.0 0l11.6875 -55.0l-22.0 0l2.34375 -11.0l66.0 0l-2.34375 11.0l-22.0 0l-11.6875 55.0l22.0 0l-2.328125 10.999985l-66.0 0zm77.00006 0l16.359375 -76.999985l22.0 0l-2.34375 11.0l11.0 0l-2.328125 11.0l11.0 0l-2.34375 11.0l11.0 0l7.015625 -33.0l22.0 0l-16.359375 76.999985l-22.0 0l4.671875 -21.999985l-11.0 0l2.34375 -11.0l-11.0 0l2.328125 -11.0l-11.0 0l-9.34375 43.999985l-22.0 0z" fill-rule="nonzero"/><path fill="#4285f4" d="m460.34372 446.08078l2.328125 -11.0l-11.0 0l2.34375 -11.0l-11.0 0l7.015625 -33.0l11.0 0l2.328125 -11.0l11.0 0l2.34375 -11.0l55.00003 0l-2.34375 11.0l-44.00003 0l-2.328125 11.0l-11.0 0l-7.015625 33.0l11.0 0l-2.34375 11.0l22.0 0l4.6875 -22.0l-11.0 0l2.328125 -11.0l33.00003 0l-9.34375 44.0l-55.00003 0z" fill-rule="nonzero"/><path fill="#000000" fill-opacity="0.0" d="m163.19685 200.69974l633.6063 0l0 205.41733l-633.6063 0z" fill-rule="evenodd"/><path fill="#595959" d="m218.34358 275.91974l16.359375 -77.0l76.999985 0l-2.34375 11.0l-54.999985 0l-4.671875 22.0l43.999985 0l-2.328125 11.0l-43.999985 0l-7.015625 33.0l-22.0 0zm88.000046 0l11.6875 -55.0l11.0 0l2.328125 -11.0l11.0 0l2.34375 -11.0l33.0 0l-2.34375 11.0l11.0 0l-2.328125 11.0l11.0 0l-11.6875 55.0l-22.0 0l4.671875 -22.0l-33.0 0l-4.671875 22.0l-22.0 0zm29.015625 -33.0l33.0 0l4.671875 -22.0l-11.0 0l2.328125 -11.0l-11.0 0l-2.328125 11.0l-11.0 0l-4.671875 22.0zm69.984436 33.0l16.359375 -77.0l22.0 0l-14.03125 66.0l44.0 0l-2.328125 11.0l-66.0 0zm88.00006 0l16.359375 -77.0l22.0 0l-14.03125 66.0l44.0 0l-2.328125 11.0l-66.0 0zm88.00006 0l2.328125 -11.0l22.0 0l11.6875 -55.0l-22.0 0l2.34375 -11.0l66.0 0l-2.34375 11.0l-22.0 0l-11.6875 55.0l22.0 0l-2.328125 11.0l-66.0 0zm77.00006 0l16.359375 -77.0l22.0 0l-2.34375 11.0l11.0 0l-2.328125 11.0l11.0 0l-2.34375 11.0l11.0 0l7.015625 -33.0l22.0 0l-16.359375 77.0l-22.0 0l4.671875 -22.0l-11.0 0l2.34375 -11.0l-11.0 0l2.328125 -11.0l-11.0 0l-9.34375 44.0l-22.0 0z" fill-rule="nonzero"/><path fill="#595959" d="m460.34372 458.07974l2.328125 -11.0l-11.0 0l2.34375 -11.0l-11.0 0l7.015625 -33.0l11.0 0l2.328125 -11.0l11.0 0l2.34375 -11.0l55.00003 0l-2.34375 11.0l-44.00003 0l-2.328125 11.0l-11.0 0l-7.015625 33.0l11.0 0l-2.34375 11.0l22.0 0l4.6875 -22.0l-11.0 0l2.328125 -11.0l33.00003 0l-9.34375 44.0l-55.00003 0z" fill-rule="nonzero"/><path fill="#000000" fill-opacity="0.0" d="m322.51968 338.20734l314.9606 0l0 504.18896l-314.9606 0z" fill-rule="evenodd"/><path fill="#595959" d="m480.00006 547.8792l0 -66.671875l-133.32812 0l0 -66.65625l33.328125 0l0 -33.328125l33.328125 0l0 -33.34375l33.34375 0l0 -33.328125l99.984375 0l0 133.32812l33.34375 0l0 33.328125l-33.34375 0l0 66.671875l-66.65625 0zm-66.671875 -100.0l66.671875 0l0 -66.65625l-33.328125 0l0 33.328125l-33.34375 0l0 33.328125z" fill-rule="nonzero"/></g></svg>